# xmcd
#
# Track frame offsets:
#	150
#	11170
#	24795
#	33927
#	45400
#	58875
#	72922
#	83605
#	90637
#	103350
#	119980
#	132192
#	143387
#	150437
#	157097
#	168647
#
# Disc length: 2373
#
# Revision: 1
# Processed by: cddbd v1.5.1PL0 Copyright (c) Steve Scherf et al.
# Submitted via: CDex 1.51
# Normalized: r0:DSETVAR1,TDELIM( - )
#
DISCID=d0094310
DTITLE=Various Artist - American Hit Parade 50's〜70's Vol.1
DYEAR=1989
DGENRE=Pop
TTITLE0=Patti Page - Tennessee Waltz
TTITLE1=Patti Page - Mockin' Bird Hill
TTITLE2=Rosemary Clooney - Come On-A My House (家においでよ)
TTITLE3=Georgia Gibbs - Kiss Of Fire
TTITLE4=Jo Stafford - Jambalaya
TTITLE5=Tony Bennett - Stranger In Paradise
TTITLE6=Carl Perkins - Blue Suede Shoes
TTITLE7=Little Richard - Long Tall Sally (のっぽのサリー)
TTITLE8=Jo Stafford - Teach Me Tonight (今夜教えて)
TTITLE9=Doris Day - Secret Love
TTITLE10=Johnnie Ray - Just Walking In The Rain (雨に歩けば)
TTITLE11=Guy Michell - Singing The Blues (ブルースを歌おう)
TTITLE12=Little Richard - Tutti Frutti
TTITLE13=Little Richard - Jenny, Jenny
TTITLE14=Marty Robbins - A White Sport Coat And A Pink Carnation (白いスポーツ・コート)
TTITLE15=Doris Day - Whatever Will BE, Will BE (Que Sera Sera)
EXTD=YEAR: 1989
EXTT0=
EXTT1=
EXTT2=
EXTT3=
EXTT4=
EXTT5=
EXTT6=
EXTT7=
EXTT8=
EXTT9=
EXTT10=
EXTT11=
EXTT12=
EXTT13=
EXTT14=
EXTT15=
PLAYORDER=
